<?xml version="1.0" standalone="no"?>
<!DOCTYPE svg PUBLIC "-//W3C//DTD SVG 20010904//EN"
 "http://www.w3.org/TR/2001/REC-SVG-20010904/DTD/svg10.dtd">
<svg version="1.0" xmlns="http://www.w3.org/2000/svg"
 width="430.000000pt" height="430.000000pt" viewBox="0 0 430.000000 430.000000"
 preserveAspectRatio="xMidYMid meet">
<metadata>
Created by potrace 1.11, written by Peter Selinger 2001-2013
</metadata>
<g transform="translate(0.000000,430.000000) scale(0.100000,-0.100000)"
fill="#000000" stroke="none">
<path d="M2454 4255 c-4 -8 -11 -15 -18 -15 -15 0 -166 -152 -166 -167 0 -6
-4 -13 -9 -15 -5 -1 -32 -39 -60 -83 -28 -44 -55 -85 -59 -90 -5 -6 -7 -16 -5
-22 2 -6 0 -14 -6 -17 -6 -4 -8 -13 -4 -21 3 -8 0 -15 -5 -15 -6 0 -14 -20
-18 -45 -3 -25 -10 -45 -15 -45 -5 0 -8 -3 -8 -7 1 -5 0 -10 -1 -13 -2 -3 -4
-18 -6 -35 -6 -53 -10 -70 -18 -83 -9 -15 -9 -179 1 -194 6 -11 13 -42 15 -75
1 -7 5 -13 10 -13 4 0 7 -3 6 -7 -2 -9 90 -195 101 -203 4 -3 15 -24 25 -47
11 -24 23 -43 27 -43 4 0 11 -9 14 -21 4 -11 24 -44 46 -72 21 -29 37 -56 36
-60 -1 -5 6 -13 16 -18 9 -6 17 -15 17 -20 0 -6 6 -16 13 -24 6 -7 28 -34 47
-60 19 -25 47 -61 63 -80 15 -18 27 -38 27 -44 0 -6 7 -11 16 -11 9 0 14 -5
12 -12 -2 -6 11 -27 29 -47 18 -20 36 -46 39 -57 3 -12 16 -26 30 -32 13 -6
21 -17 19 -24 -3 -7 7 -21 22 -30 16 -10 22 -18 14 -18 -8 0 -1 -12 17 -30 18
-17 29 -30 26 -30 -7 0 48 -73 63 -83 7 -4 13 -15 13 -23 0 -9 27 -49 60 -90
33 -41 60 -81 60 -89 0 -8 5 -15 12 -15 6 0 9 -3 5 -6 -3 -4 10 -27 31 -52 20
-25 35 -46 32 -46 -10 -3 33 -85 43 -83 6 1 12 -5 12 -13 1 -8 8 -31 15 -50 8
-19 13 -38 12 -42 -1 -5 2 -8 7 -8 4 0 14 -21 21 -48 7 -26 17 -52 21 -58 5
-6 6 -14 3 -17 -3 -3 -2 -12 2 -19 10 -17 15 -43 17 -96 1 -23 5 -42 10 -42 4
0 7 7 7 15 0 8 6 15 13 15 10 0 13 -13 12 -45 -2 -25 2 -48 7 -51 5 -3 4 -12
-3 -20 -7 -9 -8 -14 -1 -14 6 0 10 -9 9 -20 -1 -11 -4 -20 -7 -20 -4 0 -6 -30
-5 -67 1 -38 -2 -73 -7 -80 -5 -6 -8 -17 -7 -25 2 -14 -4 -47 -23 -113 -7 -22
-13 -43 -14 -47 -1 -5 -2 -9 -4 -10 -1 -2 -3 -10 -5 -18 -1 -8 -11 -33 -20
-55 -10 -22 -17 -43 -17 -48 1 -4 -3 -7 -9 -7 -5 0 -8 -4 -5 -9 7 -11 -23 -70
-44 -88 -8 -7 -11 -13 -7 -13 8 0 -70 -110 -86 -121 -5 -3 -9 -10 -10 -15 -5
-25 -268 -253 -293 -254 -5 0 -20 -9 -32 -20 -12 -12 -22 -18 -22 -16 0 3 -30
-10 -66 -30 -36 -19 -68 -33 -71 -30 -3 3 -15 -1 -27 -9 -11 -8 -30 -15 -41
-15 -19 1 -19 1 -2 14 9 7 17 18 17 25 0 6 4 11 9 11 6 0 8 9 6 20 -2 11 1 20
7 20 5 0 8 7 4 15 -3 8 -1 15 4 15 4 0 12 15 15 32 4 18 10 37 13 43 3 5 7 16
8 25 1 8 4 26 8 40 3 14 8 39 12 55 3 17 7 39 9 51 3 12 30 48 60 80 67 70 76
82 93 114 27 52 10 222 -24 251 -8 6 -14 16 -14 21 0 5 -7 16 -15 25 -19 18
-13 43 21 96 14 21 22 42 19 47 -3 5 -1 11 5 15 5 3 10 17 10 31 0 13 3 24 8
24 11 0 6 159 -6 205 -6 22 -18 49 -26 60 -13 20 -47 78 -72 123 -9 18 -14 20
-20 10 -12 -18 -13 -230 -1 -245 5 -7 6 -16 3 -22 -3 -5 1 -11 9 -15 8 -3 15
-12 15 -21 0 -8 4 -15 10 -15 14 0 7 -32 -14 -64 -35 -54 -41 -30 -42 171 0
104 -3 194 -6 199 -2 5 -5 87 -6 183 -2 190 -3 193 -66 255 -18 17 -46 41 -64
54 l-32 23 0 -292 c0 -302 -10 -389 -15 -137 -4 159 -5 168 -17 168 -5 0 -7 4
-4 8 7 11 -79 92 -98 92 -13 0 -29 -44 -40 -115 -2 -11 -5 -20 -6 -20 -3 0 -7
-24 -14 -81 -5 -37 -2 -44 34 -79 22 -22 40 -42 40 -46 0 -12 94 -99 107 -99
13 0 17 -300 4 -300 -16 0 -51 32 -51 47 0 9 3 13 7 10 3 -4 13 3 21 14 14 20
12 24 -22 55 -21 19 -42 32 -47 29 -5 -4 -9 -1 -9 5 0 6 -8 14 -17 17 -38 14
-122 84 -199 166 -45 48 -84 87 -87 87 -15 0 -24 -69 -31 -233 -4 -95 -3 -98
21 -115 14 -9 34 -27 46 -39 11 -13 25 -23 30 -23 5 0 18 -11 29 -25 11 -14
26 -25 34 -25 7 0 19 -9 26 -20 7 -11 18 -20 25 -20 6 0 21 -12 32 -27 12 -14
24 -24 27 -21 3 3 17 -5 32 -18 15 -14 35 -31 45 -39 25 -22 22 -31 -20 -56
-21 -12 -57 -38 -80 -56 -24 -19 -43 -31 -43 -26 0 4 -4 3 -8 -3 -13 -21 -190
-117 -234 -128 -16 -3 -28 -11 -28 -16 0 -5 -9 -7 -20 -5 -11 2 -20 0 -20 -6
0 -5 -6 -9 -12 -9 -7 0 -32 -9 -56 -20 -23 -10 -45 -19 -49 -19 -3 1 -10 -5
-14 -13 -7 -11 -11 -10 -18 2 -7 9 -6 17 1 21 6 4 12 22 13 41 4 57 17 113 29
121 6 5 0 6 -14 3 -14 -3 -31 -6 -37 -6 -7 0 -13 -7 -13 -15 0 -9 -7 -18 -15
-21 -8 -4 -12 -10 -9 -15 3 -5 0 -9 -6 -9 -7 0 -10 -7 -6 -15 3 -8 1 -15 -3
-15 -5 0 -12 -18 -16 -40 -4 -22 -11 -40 -15 -40 -5 0 -7 -9 -5 -19 5 -25 -13
-38 -47 -36 -16 1 -28 -1 -28 -5 0 -4 -6 -7 -12 -8 -7 -1 -40 -4 -74 -8 -41
-4 -74 -2 -100 7 -21 7 -42 12 -46 11 -3 -1 -26 16 -50 38 -37 34 -40 39 -21
40 12 0 26 -7 31 -16 8 -15 10 -14 16 2 4 10 4 15 0 11 -4 -4 -14 3 -23 16 -9
12 -14 22 -11 22 3 0 -10 21 -29 47 -18 25 -30 51 -27 56 3 6 0 12 -6 14 -10
4 -13 45 -12 169 1 208 2 211 15 220 6 4 8 12 4 19 -5 8 -12 6 -26 -7 -10 -10
-24 -23 -31 -29 -19 -17 -52 -58 -51 -64 0 -3 -3 -15 -8 -28 -5 -13 -9 -30 -9
-38 0 -8 -4 -14 -8 -14 -4 0 -8 -8 -9 -17 -1 -10 -5 -36 -8 -58 -10 -64 -13
-305 -4 -305 4 0 6 -9 4 -20 -2 -11 0 -20 6 -20 5 0 9 -8 9 -19 0 -10 11 -35
25 -55 13 -20 21 -36 17 -36 -4 0 1 -5 11 -11 9 -5 17 -15 17 -21 0 -5 20 -30
45 -55 25 -24 45 -42 45 -39 0 3 16 -6 36 -19 20 -14 43 -26 50 -26 17 -2 33
-6 37 -9 5 -5 197 -6 197 0 0 6 13 9 59 13 21 2 27 -4 35 -33 14 -46 57 -119
88 -147 13 -12 45 -32 72 -44 47 -20 92 -22 164 -4 12 3 31 7 41 9 11 3 30 10
43 17 13 7 28 13 33 14 16 1 120 57 123 66 2 5 9 9 16 9 7 0 32 14 54 30 23
17 42 27 42 23 0 -5 4 -3 8 3 4 6 28 25 55 43 36 24 47 28 48 16 0 -8 0 -35 0
-60 0 -202 0 -203 -23 -211 -13 -5 -26 -7 -30 -6 -5 1 -8 -2 -8 -7 0 -6 -8
-10 -17 -10 -20 0 -71 -10 -93 -18 -19 -7 -69 -13 -142 -15 -32 -2 -58 -6 -58
-9 0 -9 -252 -9 -265 -1 -5 4 -28 8 -50 9 -22 1 -55 4 -73 7 -36 5 -55 -12
-23 -21 12 -3 21 -8 21 -12 0 -3 109 -4 242 -3 134 2 240 1 236 -3 -3 -4 -91
-7 -194 -7 -123 0 -182 -4 -170 -10 18 -10 41 -16 96 -24 19 -3 42 -8 50 -11
8 -4 33 -6 54 -5 22 1 44 -2 50 -6 11 -8 290 -6 331 1 11 3 44 8 73 12 29 4
55 11 58 16 2 4 11 6 19 2 9 -3 23 1 32 8 9 8 17 12 17 10 1 -2 26 4 56 13 72
23 74 23 84 24 5 0 12 5 15 10 6 9 88 48 105 49 5 1 13 8 18 17 5 9 16 16 23
16 8 0 15 4 15 8 0 5 11 14 23 19 27 13 257 231 257 244 0 5 14 22 31 39 18
16 28 30 23 30 -5 0 -1 5 9 11 9 5 17 14 17 20 0 5 9 19 19 30 22 24 114 185
111 195 -1 4 2 10 7 13 12 8 49 94 45 104 -1 5 3 15 9 23 6 8 8 14 4 14 -4 0
-3 6 3 12 5 7 13 34 17 61 4 26 10 47 14 47 4 0 7 15 6 33 -1 17 1 37 5 42 6
9 7 270 0 270 -1 0 -3 16 -4 35 -1 20 -7 56 -14 80 -6 25 -14 59 -18 75 -10
39 -11 44 -14 48 -1 1 -3 10 -5 21 -2 10 -8 23 -14 29 -6 6 -11 21 -11 33 0
13 -5 26 -10 29 -6 4 -8 11 -5 16 4 5 1 9 -4 9 -6 0 -10 3 -9 8 0 4 -6 24 -15
44 -10 21 -17 42 -17 48 0 5 -4 10 -10 10 -5 0 -10 6 -10 13 0 14 -80 162
-100 184 -5 7 -10 15 -10 19 0 4 -18 33 -40 65 -22 32 -40 61 -40 64 0 6 -11
21 -40 54 -8 9 -21 29 -29 44 -8 15 -23 36 -33 47 -10 11 -16 20 -13 20 4 0 0
7 -9 15 -8 9 -30 36 -47 60 -18 25 -36 45 -40 45 -5 0 -6 7 -3 15 4 8 1 15 -5
15 -7 0 -15 8 -18 18 -4 9 -15 25 -26 35 -11 9 -16 17 -12 17 4 0 -6 14 -24
30 -17 17 -31 36 -31 43 0 7 -9 18 -20 25 -11 7 -20 17 -20 23 0 10 -10 24
-42 60 -10 10 -18 22 -18 27 0 4 -8 15 -17 23 -20 17 -87 110 -88 120 0 4 -11
16 -25 28 -14 11 -21 20 -16 21 5 0 3 7 -4 15 -10 12 -10 15 4 15 15 0 16 42
16 463 0 254 -4 468 -9 476 -6 9 -5 21 1 31 7 10 8 28 3 46 -5 16 -9 58 -9 94
-1 65 -9 90 -27 90 -5 0 -12 -7 -15 -15z m-83 -3478 c-1 -60 -7 -116 -13 -126
-6 -9 -24 -23 -42 -31 -17 -8 -38 -22 -46 -31 -15 -18 -170 -103 -170 -94 0 3
-11 -2 -25 -11 -14 -9 -25 -12 -25 -8 0 5 -4 4 -8 -1 -5 -8 -108 -47 -132 -51
-3 0 -25 -4 -50 -8 -53 -9 -109 11 -146 51 -25 27 -31 38 -15 29 5 -3 28 9 52
27 24 19 76 49 114 67 39 18 73 38 76 43 3 5 10 9 15 10 18 1 99 40 102 48 2
5 7 7 12 4 4 -3 13 2 20 10 7 8 18 15 25 15 7 0 16 7 19 16 3 8 10 12 16 9 6
-3 13 1 16 9 3 9 12 16 19 16 7 0 18 7 25 15 7 8 16 12 21 9 5 -3 9 -1 9 4 0
5 21 24 48 42 26 19 49 38 51 43 1 4 10 7 19 5 13 -3 15 -20 13 -111z"/>
<path d="M2000 3950 c0 -3 -10 -10 -22 -15 -25 -11 -70 -83 -63 -102 2 -6 -1
-13 -6 -15 -6 -2 -13 -24 -15 -48 -3 -25 -8 -52 -11 -60 -9 -22 -11 -173 -2
-185 7 -11 19 -93 19 -137 0 -16 4 -28 10 -28 5 0 7 -7 4 -15 -4 -8 -2 -21 4
-28 5 -6 8 -22 7 -34 -1 -13 2 -23 5 -23 12 0 14 -41 14 -268 1 -116 4 -212 8
-212 17 0 47 46 53 81 4 22 10 39 14 39 4 0 6 15 6 33 -1 17 1 37 5 42 10 14
9 275 -1 275 -4 0 -6 16 -5 35 2 19 1 37 -4 40 -11 7 -14 58 -15 266 0 133 4
200 11 210 7 8 11 26 9 42 -2 15 0 27 5 27 5 0 8 19 8 43 0 35 -3 43 -19 43
-10 0 -19 -3 -19 -6z"/>
<path d="M1758 3813 c-10 -2 -18 -9 -18 -14 0 -5 -3 -8 -7 -7 -13 4 -95 -54
-133 -93 -48 -50 -110 -137 -110 -155 0 -8 -7 -17 -15 -20 -8 -4 -12 -10 -9
-15 3 -5 0 -9 -7 -9 -7 0 -9 -3 -6 -7 4 -3 2 -12 -4 -20 -6 -7 -9 -13 -6 -13
3 0 -3 -25 -13 -55 -10 -30 -16 -55 -13 -55 3 0 1 -6 -4 -12 -10 -13 -9 -165
0 -203 3 -11 13 -40 22 -65 9 -25 17 -52 17 -60 1 -8 4 -17 7 -20 3 -3 17 -27
31 -53 14 -27 35 -60 47 -73 12 -13 19 -24 16 -24 -3 0 12 -18 33 -41 48 -50
40 -43 161 -150 12 -10 27 -19 32 -19 5 0 16 -8 23 -17 7 -10 29 -27 48 -37
19 -11 39 -25 43 -33 4 -7 15 -13 22 -13 8 0 15 -5 15 -11 0 -5 4 -8 9 -4 5 3
16 -3 23 -12 15 -20 44 -41 71 -49 9 -4 17 -10 17 -15 0 -5 7 -9 15 -9 8 0 15
-4 15 -10 0 -5 7 -10 15 -10 8 0 15 -4 15 -8 0 -5 10 -13 23 -19 12 -6 43 -30
70 -53 26 -23 47 -38 47 -33 0 4 5 0 11 -9 5 -10 15 -18 21 -18 6 0 25 -16 43
-34 18 -19 35 -33 37 -31 2 3 46 -38 98 -90 51 -52 89 -95 85 -95 -5 0 4 -10
18 -23 15 -12 27 -28 27 -34 0 -6 7 -13 15 -17 8 -3 15 -10 15 -16 0 -6 11
-26 24 -43 13 -18 29 -47 37 -64 8 -18 18 -33 23 -33 4 0 6 -7 2 -15 -3 -8 -1
-15 4 -15 6 0 10 -9 10 -19 0 -11 7 -26 15 -34 8 -8 12 -17 9 -20 -4 -3 -2
-12 2 -19 5 -7 10 -17 11 -23 1 -5 10 -35 19 -65 9 -30 17 -75 19 -100 1 -25
4 -47 5 -50 2 -3 4 -21 5 -40 2 -19 4 -37 5 -40 7 -15 6 -50 -2 -50 -5 0 -6
-5 -3 -10 4 -6 2 -16 -3 -23 -5 -7 -9 -25 -8 -40 1 -16 -2 -31 -6 -33 -4 -3
-8 -15 -8 -27 0 -18 2 -19 10 -7 5 8 10 13 11 10 0 -3 2 -13 4 -22 2 -10 0
-18 -4 -18 -4 0 -8 -17 -9 -38 -3 -59 -25 -162 -34 -162 -5 0 -7 -4 -4 -9 3
-5 -1 -22 -9 -37 -8 -16 -15 -37 -15 -46 0 -9 -5 -20 -10 -23 -6 -4 -8 -10 -5
-15 3 -5 -3 -28 -14 -52 -10 -24 -26 -61 -34 -83 -15 -36 -23 -30 -18 13 4 25
-19 11 -25 -15 -3 -16 -10 -39 -15 -53 -15 -41 -20 -80 -10 -80 5 0 12 6 15
13 4 6 4 -3 1 -21 -4 -31 -2 -29 60 40 35 40 65 79 65 86 0 6 4 12 8 12 5 0
15 12 23 28 8 15 16 29 19 32 3 3 26 46 50 95 25 50 48 92 53 93 4 2 4 8 1 13
-3 6 0 16 6 24 7 8 9 15 5 15 -4 0 -2 6 4 14 6 8 11 18 10 22 -1 5 1 16 4 24
17 37 33 107 32 133 -1 15 1 27 5 27 8 0 10 272 2 285 -4 6 -7 22 -8 38 -1 15
-3 28 -4 30 -1 1 -4 11 -6 22 -7 45 -26 111 -34 119 -5 5 -6 15 -3 22 3 8 1
14 -4 14 -5 0 -15 20 -22 45 -7 25 -17 45 -22 45 -5 0 -8 3 -7 8 3 14 -43 102
-54 102 -6 0 -8 3 -5 6 7 7 -77 132 -97 146 -6 4 -8 8 -3 8 4 0 -5 15 -21 33
-90 101 -137 153 -149 165 -7 8 -10 18 -7 23 8 14 8 196 -1 249 -4 25 -14 53
-23 63 -8 9 -12 17 -9 17 4 0 -9 16 -28 35 -19 19 -35 39 -35 45 0 5 -5 10
-10 10 -6 0 -14 8 -17 17 -6 16 -13 25 -55 75 -17 19 -17 12 -14 -152 2 -125
7 -174 16 -180 7 -4 9 -13 6 -19 -8 -12 -44 11 -90 57 -13 12 -26 22 -30 22
-8 0 -152 111 -193 150 -18 17 -33 27 -33 23 0 -4 -13 7 -29 24 -16 18 -32 29
-35 26 -3 -4 -6 1 -6 10 0 10 -5 17 -12 17 -6 0 -39 27 -74 60 -34 33 -67 60
-73 60 -6 0 -8 7 -5 15 4 9 -3 16 -20 21 -14 3 -24 10 -21 14 3 5 -12 26 -33
47 -40 39 -59 73 -42 73 6 0 10 -4 10 -8 0 -10 138 -152 147 -152 3 0 3 7 -1
15 -3 8 0 15 7 15 7 0 8 3 2 8 -12 9 -13 42 -2 60 5 7 4 18 -1 25 -6 7 -9 157
-9 377 0 340 -4 412 -21 409 -4 -1 -15 -3 -24 -6z"/>
<path d="M1205 2767 c-10 -8 -25 -39 -32 -68 -17 -68 -21 -83 -23 -86 -2 -2
-3 -7 -4 -12 0 -5 -4 -13 -8 -17 -5 -4 -8 -16 -8 -26 0 -10 -4 -18 -9 -18 -5
0 -7 -9 -4 -20 3 -11 0 -20 -6 -20 -5 0 -8 -6 -5 -14 3 -7 -8 -38 -24 -67 -16
-30 -30 -57 -31 -61 -4 -23 -7 -31 -24 -70 -10 -21 -17 -44 -17 -53 0 -8 -4
-15 -8 -15 -5 0 -7 -15 -6 -32 12 -115 45 -169 119 -190 53 -15 85 -17 85 -5
0 5 9 7 20 4 12 -3 34 5 55 19 19 13 35 20 35 16 0 -4 9 7 20 23 10 17 19 34
19 39 -1 5 5 12 12 17 17 10 19 153 3 169 -9 9 -21 3 -47 -20 -37 -32 -100
-50 -111 -32 -4 6 -13 9 -21 5 -10 -3 -13 0 -10 8 3 8 7 34 9 59 6 52 8 64 24
103 7 16 12 32 12 37 0 5 5 21 12 37 6 15 10 34 9 41 -1 6 3 12 10 12 6 0 8 7
5 16 -4 9 -2 22 3 28 4 6 12 32 15 58 4 26 11 50 15 52 9 6 5 66 -6 76 -17 17
-58 21 -78 7z"/>
<path d="M1628 2655 c-2 -19 -1 -38 4 -43 4 -4 3 -24 -1 -45 -5 -20 -5 -37 -1
-37 5 0 9 -84 10 -186 0 -103 3 -191 7 -197 5 -9 14 -349 13 -527 0 -14 1
-101 3 -195 2 -93 0 -174 -4 -180 -12 -17 -7 -196 5 -192 6 2 15 18 21 35 5
18 13 32 17 32 4 0 5 6 2 14 -3 8 -1 17 5 20 6 4 8 13 4 21 -3 8 0 15 6 15 6
0 10 3 9 8 -1 8 10 58 19 82 4 8 7 18 8 23 2 4 3 8 5 10 4 5 11 43 14 73 2 17
6 36 9 41 4 5 7 95 7 198 1 103 5 197 10 209 4 12 4 42 0 69 -4 26 -4 47 -1
47 3 0 5 138 5 307 -2 297 -3 308 -23 324 -11 9 -18 19 -16 21 3 3 -7 11 -22
19 -15 8 -37 24 -48 36 -11 12 -30 24 -41 28 -19 5 -22 1 -26 -30z"/>
<path d="M1986 2125 c-109 -31 -133 -173 -38 -220 47 -24 70 -25 107 -6 37 20
55 36 55 50 0 6 3 11 8 11 10 0 8 80 -3 105 -22 50 -76 75 -129 60z"/>
<path d="M1085 1820 c-4 -6 -13 -9 -21 -6 -25 10 -43 -5 -50 -40 -3 -19 -10
-34 -15 -34 -4 0 -6 -9 -4 -20 2 -11 -1 -20 -6 -20 -6 0 -8 -4 -5 -8 6 -10
-21 -91 -36 -109 -6 -7 -7 -13 -2 -13 5 0 3 -4 -4 -8 -7 -5 -15 -32 -18 -62
-4 -48 -2 -56 22 -82 22 -22 37 -28 70 -28 25 0 49 6 58 15 8 8 18 15 22 15 4
0 20 14 35 31 30 33 45 90 31 115 -7 13 -12 10 -25 -18 -15 -29 -17 -30 -17
-10 l0 24 -33 -19 c-20 -12 -40 -17 -52 -13 -19 7 -18 7 3 19 13 7 22 20 21
29 -1 9 1 25 4 35 4 9 10 25 14 35 3 9 5 23 4 30 -1 6 2 12 7 12 5 0 9 6 10
13 0 6 6 32 12 56 9 36 8 47 -3 59 -11 10 -17 11 -22 2z"/>
<path d="M1391 1777 c-6 -6 -11 -8 -11 -4 0 5 -11 -3 -24 -16 -47 -47 -52
-113 -12 -163 15 -19 31 -32 37 -29 5 4 9 1 9 -4 0 -6 20 -11 45 -11 25 0 45
5 45 10 0 6 6 10 13 10 25 0 79 67 84 104 3 22 0 36 -6 36 -6 0 -8 6 -6 13 7
18 -22 50 -39 44 -9 -4 -18 -2 -21 4 -4 5 -11 7 -16 4 -5 -4 -9 -3 -9 2 0 12
-77 12 -89 0z"/>
<path d="M1500 1309 c0 -6 -10 -9 -22 -7 -20 3 -60 -30 -64 -52 0 -3 -4 -13
-9 -23 -5 -13 -11 -15 -21 -6 -7 6 -22 8 -33 4 -23 -7 -38 10 -16 19 8 3 12
12 9 20 -5 13 -9 13 -30 -1 -14 -9 -27 -13 -30 -10 -3 3 -19 -8 -35 -24 -40
-40 -38 -82 6 -89 44 -8 75 -60 75 -125 0 -50 11 -72 36 -71 16 1 46 35 40 45
-3 5 1 11 9 15 9 3 15 18 15 36 0 17 6 33 13 36 8 3 13 18 12 37 -2 40 14 60
34 43 19 -15 15 -17 52 33 19 28 28 46 21 49 -7 2 -12 11 -12 21 0 9 -9 27
-20 39 -23 25 -30 27 -30 11z"/>
<path d="M3179 1293 c-3 -29 0 -85 5 -90 3 -4 6 17 6 45 0 29 -2 52 -5 52 -3
0 -5 -3 -6 -7z"/>
<path d="M3166 1164 c4 -38 14 -42 14 -6 0 18 -4 32 -9 32 -4 0 -7 -12 -5 -26z"/>
<path d="M3159 1118 c-17 -57 -22 -91 -11 -84 6 4 9 13 5 21 -3 8 -1 15 4 15
5 0 9 11 9 25 0 21 -4 33 -7 23z"/>
<path d="M3131 1004 c0 -11 3 -14 6 -6 3 7 2 16 -1 19 -3 4 -6 -2 -5 -13z"/>
<path d="M3092 888 c2 -6 10 -14 16 -16 7 -2 10 2 6 12 -7 18 -28 22 -22 4z"/>
</g>
</svg>
